<svg width="429" height="74" viewBox="0 0 429 74" fill="none" xmlns="http://www.w3.org/2000/svg">
<path d="M8.952 73H0.311996V4.45601H38.616V12.04H8.952V36.328H36.792V43.912H8.952V73Z" fill="black"/>
<path d="M59.7892 20.68C66.0612 20.68 70.7013 22.056 73.7093 24.808C76.7173 27.56 78.2213 31.944 78.2213 37.96V73H72.0772L70.4453 65.704H70.0612C68.5892 67.56 67.0532 69.128 65.4532 70.408C63.9172 71.624 62.1252 72.52 60.0772 73.096C58.0932 73.672 55.6612 73.96 52.7812 73.96C49.7092 73.96 46.9252 73.416 44.4292 72.328C41.9972 71.24 40.0772 69.576 38.6692 67.336C37.2612 65.032 36.5572 62.152 36.5572 58.696C36.5572 53.576 38.5732 49.64 42.6052 46.888C46.6372 44.072 52.8452 42.536 61.2292 42.28L69.9652 41.992V38.92C69.9652 34.632 69.0372 31.656 67.1812 29.992C65.3252 28.328 62.7013 27.496 59.3092 27.496C56.6212 27.496 54.0612 27.912 51.6292 28.744C49.1972 29.512 46.9252 30.408 44.8132 31.432L42.2212 25.096C44.4612 23.88 47.1172 22.856 50.1892 22.024C53.2612 21.128 56.4612 20.68 59.7892 20.68ZM62.2852 48.136C55.8852 48.392 51.4372 49.416 48.9412 51.208C46.5092 53 45.2932 55.528 45.2932 58.792C45.2932 61.672 46.1572 63.784 47.8852 65.128C49.6772 66.472 51.9492 67.144 54.7012 67.144C59.0532 67.144 62.6692 65.96 65.5492 63.592C68.4292 61.16 69.8692 57.448 69.8692 52.456V47.848L62.2852 48.136Z" fill="black"/>
<path d="M118.978 58.792C118.978 62.12 118.146 64.904 116.482 67.144C114.818 69.384 112.45 71.08 109.378 72.232C106.306 73.384 102.658 73.96 98.4337 73.96C94.8497 73.96 91.7457 73.672 89.1217 73.096C86.5617 72.52 84.2897 71.72 82.3057 70.696V63.016C84.3537 64.04 86.8177 65 89.6977 65.896C92.6417 66.728 95.6177 67.144 98.6257 67.144C102.914 67.144 106.018 66.472 107.938 65.128C109.858 63.72 110.818 61.864 110.818 59.56C110.818 58.28 110.466 57.128 109.762 56.104C109.058 55.08 107.778 54.056 105.922 53.032C104.13 52.008 101.538 50.856 98.1458 49.576C94.8178 48.296 91.9697 47.016 89.6017 45.736C87.2337 44.456 85.4097 42.92 84.1297 41.128C82.8497 39.336 82.2097 37.032 82.2097 34.216C82.2097 29.864 83.9697 26.504 87.4897 24.136C91.0737 21.768 95.7457 20.584 101.506 20.584C104.642 20.584 107.554 20.904 110.242 21.544C112.994 22.12 115.554 22.952 117.922 24.04L115.042 30.76C113.634 30.12 112.13 29.576 110.53 29.128C108.994 28.616 107.426 28.232 105.826 27.976C104.226 27.656 102.594 27.496 100.93 27.496C97.4737 27.496 94.8177 28.072 92.9617 29.224C91.1697 30.312 90.2738 31.816 90.2738 33.736C90.2738 35.144 90.6897 36.36 91.5217 37.384C92.3537 38.344 93.7297 39.304 95.6497 40.264C97.6337 41.16 100.258 42.248 103.522 43.528C106.786 44.744 109.57 45.992 111.874 47.272C114.178 48.552 115.938 50.12 117.154 51.976C118.37 53.768 118.978 56.04 118.978 58.792Z" fill="black"/>
<path d="M131.219 21.448C131.219 22.664 131.155 23.912 131.027 25.192C130.963 26.472 130.867 27.624 130.739 28.648H131.315C132.403 26.856 133.779 25.384 135.443 24.232C137.107 23.08 138.963 22.216 141.011 21.64C143.059 21 145.171 20.68 147.347 20.68C151.507 20.68 154.963 21.352 157.715 22.696C160.531 23.976 162.643 25.992 164.051 28.744C165.459 31.496 166.163 35.08 166.163 39.496V73H157.811V40.072C157.811 35.912 156.883 32.808 155.027 30.76C153.171 28.712 150.259 27.688 146.291 27.688C142.451 27.688 139.443 28.424 137.267 29.896C135.091 31.304 133.523 33.416 132.563 36.232C131.667 38.984 131.219 42.376 131.219 46.408V73H122.771V0.0400085H131.219V21.448Z" fill="black"/>
<path d="M181.923 21.544V73H173.475V21.544H181.923ZM177.795 2.24801C179.075 2.24801 180.195 2.69601 181.155 3.59201C182.179 4.42401 182.691 5.76801 182.691 7.62401C182.691 9.41601 182.179 10.76 181.155 11.656C180.195 12.552 179.075 13 177.795 13C176.387 13 175.203 12.552 174.243 11.656C173.283 10.76 172.803 9.41601 172.803 7.62401C172.803 5.76801 173.283 4.42401 174.243 3.59201C175.203 2.69601 176.387 2.24801 177.795 2.24801Z" fill="black"/>
<path d="M234.321 47.176C234.321 51.464 233.745 55.272 232.593 58.6C231.505 61.864 229.905 64.648 227.793 66.952C225.745 69.256 223.217 71.016 220.209 72.232C217.265 73.384 213.969 73.96 210.321 73.96C206.929 73.96 203.793 73.384 200.913 72.232C198.033 71.016 195.537 69.256 193.425 66.952C191.313 64.648 189.649 61.864 188.433 58.6C187.281 55.272 186.705 51.464 186.705 47.176C186.705 41.48 187.665 36.68 189.585 32.776C191.505 28.808 194.257 25.8 197.841 23.752C201.425 21.64 205.681 20.584 210.609 20.584C215.281 20.584 219.377 21.64 222.897 23.752C226.481 25.8 229.265 28.808 231.249 32.776C233.297 36.68 234.321 41.48 234.321 47.176ZM195.441 47.176C195.441 51.208 195.953 54.728 196.977 57.736C198.065 60.68 199.729 62.952 201.969 64.552C204.209 66.152 207.057 66.952 210.513 66.952C213.969 66.952 216.817 66.152 219.057 64.552C221.297 62.952 222.929 60.68 223.953 57.736C225.041 54.728 225.585 51.208 225.585 47.176C225.585 43.08 225.041 39.592 223.953 36.712C222.865 33.832 221.201 31.624 218.961 30.088C216.785 28.488 213.937 27.688 210.417 27.688C205.169 27.688 201.361 29.416 198.993 32.872C196.625 36.328 195.441 41.096 195.441 47.176Z" fill="black"/>
<path d="M263.838 20.584C269.982 20.584 274.622 22.088 277.758 25.096C280.894 28.04 282.462 32.84 282.462 39.496V73H274.11V40.072C274.11 35.912 273.182 32.808 271.326 30.76C269.47 28.712 266.558 27.688 262.59 27.688C256.894 27.688 252.958 29.288 250.782 32.488C248.606 35.688 247.518 40.296 247.518 46.312V73H239.07V21.544H245.886L247.134 28.552H247.614C248.766 26.76 250.174 25.288 251.838 24.136C253.566 22.92 255.454 22.024 257.502 21.448C259.55 20.872 261.662 20.584 263.838 20.584Z" fill="black"/>
<path d="M310.776 4.45601C305.08 4.45601 300.408 5.19201 296.76 6.66401C293.048 8.07201 290.296 10.216 288.504 13.096C286.712 15.976 285.816 19.592 285.816 23.944C285.816 27.592 286.488 30.632 287.832 33.064C289.176 35.496 290.904 37.448 293.016 38.92C295.064 40.328 297.24 41.448 299.544 42.28L280.728 73H290.808L307.416 44.68H321.048V73H329.688V4.45601H310.776ZM311.256 11.944H321.048V37.384H310.776C307.064 37.384 304.024 36.904 301.656 35.944C299.288 34.92 297.56 33.448 296.472 31.528C295.32 29.608 294.744 27.208 294.744 24.328C294.744 21.32 295.352 18.92 296.568 17.128C297.72 15.336 299.512 14.024 301.944 13.192C304.376 12.36 307.48 11.944 311.256 11.944Z" fill="#F21717"/>
<path d="M386.44 48.808C386.44 53.544 385.48 57.832 383.56 61.672C381.64 65.448 378.696 68.456 374.728 70.696C370.824 72.872 365.832 73.96 359.752 73.96C351.24 73.96 344.744 71.656 340.264 67.048C335.848 62.376 333.64 56.232 333.64 48.616V4.45601H342.28V48.904C342.28 54.472 343.752 58.792 346.696 61.864C349.704 64.936 354.216 66.472 360.232 66.472C364.392 66.472 367.752 65.736 370.312 64.264C372.936 62.728 374.856 60.648 376.072 58.024C377.288 55.336 377.896 52.264 377.896 48.808V4.45601H386.44V48.808Z" fill="black"/>
<path d="M428.243 58.792C428.243 62.12 427.411 64.904 425.747 67.144C424.083 69.384 421.715 71.08 418.643 72.232C415.571 73.384 411.923 73.96 407.699 73.96C404.115 73.96 401.011 73.672 398.387 73.096C395.827 72.52 393.555 71.72 391.571 70.696V63.016C393.619 64.04 396.083 65 398.963 65.896C401.907 66.728 404.883 67.144 407.891 67.144C412.179 67.144 415.283 66.472 417.203 65.128C419.123 63.72 420.083 61.864 420.083 59.56C420.083 58.28 419.731 57.128 419.027 56.104C418.323 55.08 417.043 54.056 415.187 53.032C413.395 52.008 410.803 50.856 407.411 49.576C404.083 48.296 401.235 47.016 398.867 45.736C396.499 44.456 394.675 42.92 393.395 41.128C392.115 39.336 391.475 37.032 391.475 34.216C391.475 29.864 393.235 26.504 396.755 24.136C400.339 21.768 405.011 20.584 410.771 20.584C413.907 20.584 416.819 20.904 419.507 21.544C422.259 22.12 424.819 22.952 427.187 24.04L424.307 30.76C422.899 30.12 421.395 29.576 419.795 29.128C418.259 28.616 416.691 28.232 415.091 27.976C413.491 27.656 411.859 27.496 410.195 27.496C406.739 27.496 404.083 28.072 402.227 29.224C400.435 30.312 399.539 31.816 399.539 33.736C399.539 35.144 399.955 36.36 400.787 37.384C401.619 38.344 402.995 39.304 404.915 40.264C406.899 41.16 409.523 42.248 412.787 43.528C416.051 44.744 418.835 45.992 421.139 47.272C423.443 48.552 425.203 50.12 426.419 51.976C427.635 53.768 428.243 56.04 428.243 58.792Z" fill="black"/>
</svg>
